<svg xmlns="http://www.w3.org/2000/svg" xmlns:xlink="http://www.w3.org/1999/xlink" width="400" zoomAndPan="magnify" viewBox="0 0 300 95.999999" height="128" preserveAspectRatio="xMidYMid meet" version="1.0"><defs><g/><clipPath id="afa9cbe216"><path d="M 2.789062 3.597656 L 91.289062 3.597656 L 91.289062 92.097656 L 2.789062 92.097656 Z M 2.789062 3.597656 " clip-rule="nonzero"/></clipPath><clipPath id="73fe0bd6b3"><rect x="0" width="198" y="0" height="96"/></clipPath></defs><g clip-path="url(#afa9cbe216)"><path fill="#00bf63" d="M 14.316406 83.085938 L 15.539062 84.296875 L 15.664062 84.421875 C 19.476562 88.371094 19.4375 94.730469 15.539062 98.625 C 11.644531 102.519531 5.285156 102.5625 1.335938 98.75 L 1.210938 98.625 L -0.0117188 97.414062 L -3.351562 94.0625 C -7.285156 90.125 -7.285156 83.683594 -3.351562 79.734375 C 0.585938 75.796875 7.042969 75.796875 10.976562 79.734375 Z M 81.898438 27.652344 L 96.933594 12.617188 C 100.871094 8.679688 100.871094 2.238281 96.933594 -1.714844 C 92.984375 -5.648438 86.542969 -5.648438 82.605469 -1.714844 L 70.117188 10.777344 L 68.753906 12.136719 L 67.570312 13.324219 L 60.40625 20.488281 C 56.46875 24.425781 56.46875 30.867188 60.40625 34.816406 L 67.570312 41.980469 L 68.847656 43.246094 L 82.699219 57.097656 C 86.636719 61.035156 93.078125 61.035156 97.027344 57.097656 C 100.964844 53.160156 100.964844 46.707031 97.027344 42.769531 L 83.175781 28.917969 Z M -2.777344 -1.617188 L -2.777344 -1.632812 C 1.15625 -5.566406 7.613281 -5.566406 11.550781 -1.632812 L 96.839844 83.671875 C 100.789062 87.605469 100.789062 94.0625 96.839844 98 C 92.902344 101.933594 86.460938 101.933594 82.511719 98 L -2.777344 12.695312 C -6.714844 8.761719 -6.714844 2.320312 -2.777344 -1.617188 Z M -2.902344 39.214844 C 1.035156 35.277344 7.476562 35.277344 11.425781 39.214844 L 56.003906 83.792969 C 59.941406 87.730469 59.941406 94.183594 56.003906 98.121094 C 52.054688 102.058594 45.613281 102.058594 41.675781 98.121094 L -2.902344 53.542969 C -6.835938 49.605469 -6.835938 43.152344 -2.902344 39.214844 Z M -2.902344 39.214844 " fill-opacity="1" fill-rule="evenodd"/></g><g transform="matrix(1, 0, 0, 1, 102, -0.000000000000008101)"><g clip-path="url(#73fe0bd6b3)"><g fill="#ffffff" fill-opacity="1"><g transform="translate(0.0861217, 41.643394)"><g><path d="M 13.0625 0.625 C 9.519531 0.625 6.679688 -0.367188 4.546875 -2.359375 C 2.421875 -4.359375 1.359375 -7.195312 1.359375 -10.875 L 8.015625 -10.875 C 8.046875 -9.175781 8.441406 -7.820312 9.203125 -6.8125 C 9.960938 -5.8125 11.195312 -5.3125 12.90625 -5.3125 C 14.5 -5.3125 15.660156 -5.785156 16.390625 -6.734375 C 17.117188 -7.691406 17.484375 -8.945312 17.484375 -10.5 L 17.484375 -36.40625 L 24.140625 -36.40625 L 24.140625 -10.5 C 24.140625 -6.9375 23.140625 -4.191406 21.140625 -2.265625 C 19.148438 -0.335938 16.457031 0.625 13.0625 0.625 Z M 13.0625 0.625 "/></g></g></g><g fill="#ffffff" fill-opacity="1"><g transform="translate(35.817223, 41.643394)"><g><path d="M 1.203125 0 L 14.515625 -36.40625 L 22 -36.40625 L 35.3125 0 L 28.25 0 L 25.328125 -8.421875 L 11.125 -8.421875 L 8.171875 0 Z M 12.953125 -13.625 L 23.515625 -13.625 L 18.203125 -28.765625 Z M 12.953125 -13.625 "/></g></g></g><g fill="#ffffff" fill-opacity="1"><g transform="translate(80.337156, 41.643394)"><g><path d="M 3.53125 0 L 3.53125 -36.40625 L 10.1875 -36.40625 L 27.3125 -10.765625 L 27.3125 -36.40625 L 33.96875 -36.40625 L 33.96875 0 L 27.3125 0 L 10.1875 -25.59375 L 10.1875 0 Z M 3.53125 0 "/></g></g></g><g fill="#ffffff" fill-opacity="1"><g transform="translate(0.0861217, 89.953605)"><g><path d="M 2.28125 0 L 2.28125 -3.4375 L 20.234375 -32.609375 L 2.546875 -32.609375 L 2.546875 -36.40625 L 25.328125 -36.40625 L 25.328125 -32.984375 L 7.328125 -3.796875 L 25.546875 -3.796875 L 25.546875 0 Z M 2.28125 0 "/></g></g></g><g fill="#ffffff" fill-opacity="1"><g transform="translate(35.973228, 89.953605)"><g><path d="M 17.015625 0.625 C 14.515625 0.625 12.25 0.128906 10.21875 -0.859375 C 8.1875 -1.847656 6.5625 -3.378906 5.34375 -5.453125 C 4.132812 -7.535156 3.53125 -10.191406 3.53125 -13.421875 L 3.53125 -36.40625 L 7.90625 -36.40625 L 7.90625 -13.375 C 7.90625 -9.832031 8.753906 -7.265625 10.453125 -5.671875 C 12.148438 -4.078125 14.367188 -3.28125 17.109375 -3.28125 C 19.847656 -3.28125 22.050781 -4.078125 23.71875 -5.671875 C 25.382812 -7.265625 26.21875 -9.832031 26.21875 -13.375 L 26.21875 -36.40625 L 30.578125 -36.40625 L 30.578125 -13.421875 C 30.578125 -10.191406 29.96875 -7.535156 28.75 -5.453125 C 27.539062 -3.378906 25.914062 -1.847656 23.875 -0.859375 C 21.832031 0.128906 19.546875 0.625 17.015625 0.625 Z M 17.015625 0.625 "/></g></g></g><g fill="#ffffff" fill-opacity="1"><g transform="translate(78.152925, 89.953605)"><g><path d="M 3.84375 0 L 3.84375 -36.40625 L 8.21875 -36.40625 L 27.625 -7.234375 L 27.625 -36.40625 L 31.984375 -36.40625 L 31.984375 0 L 27.625 0 L 8.21875 -29.1875 L 8.21875 0 Z M 3.84375 0 "/></g></g></g><g fill="#ffffff" fill-opacity="1"><g transform="translate(122.048798, 89.953605)"><g><path d="M 3.84375 0 L 3.84375 -36.40625 L 26.375 -36.40625 L 26.375 -32.828125 L 8.21875 -32.828125 L 8.21875 -20.125 L 24.8125 -20.125 L 24.8125 -16.59375 L 8.21875 -16.59375 L 8.21875 -3.59375 L 26.375 -3.59375 L 26.375 0 Z M 3.84375 0 "/></g></g></g><g fill="#ffffff" fill-opacity="1"><g transform="translate(159.444046, 89.953605)"><g><path d="M 19.8125 0.625 C 16.238281 0.625 13.160156 -0.160156 10.578125 -1.734375 C 7.992188 -3.316406 5.988281 -5.519531 4.5625 -8.34375 C 3.144531 -11.175781 2.4375 -14.460938 2.4375 -18.203125 C 2.4375 -21.910156 3.144531 -25.175781 4.5625 -28 C 5.988281 -30.832031 7.992188 -33.046875 10.578125 -34.640625 C 13.160156 -36.234375 16.238281 -37.03125 19.8125 -37.03125 C 23.976562 -37.03125 27.367188 -36.03125 29.984375 -34.03125 C 32.609375 -32.039062 34.28125 -29.265625 35 -25.703125 L 30.171875 -25.703125 C 29.617188 -27.953125 28.484375 -29.757812 26.765625 -31.125 C 25.046875 -32.5 22.726562 -33.1875 19.8125 -33.1875 C 17.21875 -33.1875 14.945312 -32.585938 13 -31.390625 C 11.0625 -30.191406 9.5625 -28.472656 8.5 -26.234375 C 7.445312 -24.003906 6.921875 -21.328125 6.921875 -18.203125 C 6.921875 -15.085938 7.445312 -12.410156 8.5 -10.171875 C 9.5625 -7.929688 11.0625 -6.210938 13 -5.015625 C 14.945312 -3.816406 17.21875 -3.21875 19.8125 -3.21875 C 22.726562 -3.21875 25.046875 -3.882812 26.765625 -5.21875 C 28.484375 -6.5625 29.617188 -8.34375 30.171875 -10.5625 L 35 -10.5625 C 34.28125 -7.0625 32.609375 -4.320312 29.984375 -2.34375 C 27.367188 -0.363281 23.976562 0.625 19.8125 0.625 Z M 19.8125 0.625 "/></g></g></g></g></g></svg>